<mxfile host="Electron" agent="Mozilla/5.0 (Windows NT 10.0; Win64; x64) AppleWebKit/537.36 (KHTML, like Gecko) draw.io/25.0.2 Chrome/128.0.6613.186 Electron/32.2.5 Safari/537.36" version="25.0.2">
  <diagram name="Page-1" id="EYmAM2X4B7blua_G6uqF">
    <mxGraphModel dx="838" dy="746" grid="1" gridSize="10" guides="1" tooltips="1" connect="1" arrows="1" fold="1" page="1" pageScale="1" pageWidth="850" pageHeight="1100" math="0" shadow="0">
      <root>
        <mxCell id="0" />
        <mxCell id="1" parent="0" />
        <mxCell id="oP36AOhe-tUjPATUfkVU-3" style="edgeStyle=orthogonalEdgeStyle;rounded=0;orthogonalLoop=1;jettySize=auto;html=1;entryX=0.5;entryY=0;entryDx=0;entryDy=0;" edge="1" parent="1" source="oP36AOhe-tUjPATUfkVU-1" target="oP36AOhe-tUjPATUfkVU-2">
          <mxGeometry relative="1" as="geometry" />
        </mxCell>
        <mxCell id="oP36AOhe-tUjPATUfkVU-1" value="start" style="ellipse;whiteSpace=wrap;html=1;" vertex="1" parent="1">
          <mxGeometry x="240" y="40" width="120" height="80" as="geometry" />
        </mxCell>
        <mxCell id="oP36AOhe-tUjPATUfkVU-5" style="edgeStyle=orthogonalEdgeStyle;rounded=0;orthogonalLoop=1;jettySize=auto;html=1;entryX=0.5;entryY=0;entryDx=0;entryDy=0;" edge="1" parent="1" source="oP36AOhe-tUjPATUfkVU-2" target="oP36AOhe-tUjPATUfkVU-4">
          <mxGeometry relative="1" as="geometry" />
        </mxCell>
        <mxCell id="oP36AOhe-tUjPATUfkVU-2" value="input: n" style="shape=parallelogram;perimeter=parallelogramPerimeter;whiteSpace=wrap;html=1;fixedSize=1;" vertex="1" parent="1">
          <mxGeometry x="240" y="180" width="120" height="60" as="geometry" />
        </mxCell>
        <mxCell id="oP36AOhe-tUjPATUfkVU-7" style="edgeStyle=orthogonalEdgeStyle;rounded=0;orthogonalLoop=1;jettySize=auto;html=1;entryX=0.5;entryY=0;entryDx=0;entryDy=0;" edge="1" parent="1" source="oP36AOhe-tUjPATUfkVU-4" target="oP36AOhe-tUjPATUfkVU-6">
          <mxGeometry relative="1" as="geometry" />
        </mxCell>
        <mxCell id="oP36AOhe-tUjPATUfkVU-37" style="edgeStyle=orthogonalEdgeStyle;rounded=0;orthogonalLoop=1;jettySize=auto;html=1;" edge="1" parent="1" source="oP36AOhe-tUjPATUfkVU-4" target="oP36AOhe-tUjPATUfkVU-36">
          <mxGeometry relative="1" as="geometry" />
        </mxCell>
        <mxCell id="oP36AOhe-tUjPATUfkVU-4" value="n&amp;lt;2" style="rhombus;whiteSpace=wrap;html=1;" vertex="1" parent="1">
          <mxGeometry x="260" y="290" width="80" height="80" as="geometry" />
        </mxCell>
        <mxCell id="oP36AOhe-tUjPATUfkVU-9" style="edgeStyle=orthogonalEdgeStyle;rounded=0;orthogonalLoop=1;jettySize=auto;html=1;entryX=0.5;entryY=0;entryDx=0;entryDy=0;" edge="1" parent="1" source="oP36AOhe-tUjPATUfkVU-6" target="oP36AOhe-tUjPATUfkVU-8">
          <mxGeometry relative="1" as="geometry" />
        </mxCell>
        <mxCell id="oP36AOhe-tUjPATUfkVU-6" value="i = 2" style="rounded=0;whiteSpace=wrap;html=1;" vertex="1" parent="1">
          <mxGeometry x="240" y="420" width="120" height="60" as="geometry" />
        </mxCell>
        <mxCell id="oP36AOhe-tUjPATUfkVU-11" style="edgeStyle=orthogonalEdgeStyle;rounded=0;orthogonalLoop=1;jettySize=auto;html=1;entryX=1;entryY=0.5;entryDx=0;entryDy=0;" edge="1" parent="1" source="oP36AOhe-tUjPATUfkVU-8" target="oP36AOhe-tUjPATUfkVU-10">
          <mxGeometry relative="1" as="geometry" />
        </mxCell>
        <mxCell id="oP36AOhe-tUjPATUfkVU-22" style="edgeStyle=orthogonalEdgeStyle;rounded=0;orthogonalLoop=1;jettySize=auto;html=1;entryX=0;entryY=0.5;entryDx=0;entryDy=0;" edge="1" parent="1" source="oP36AOhe-tUjPATUfkVU-8" target="oP36AOhe-tUjPATUfkVU-14">
          <mxGeometry relative="1" as="geometry" />
        </mxCell>
        <mxCell id="oP36AOhe-tUjPATUfkVU-8" value="i &amp;lt;= sqrt(n)" style="rhombus;whiteSpace=wrap;html=1;" vertex="1" parent="1">
          <mxGeometry x="230" y="530" width="140" height="80" as="geometry" />
        </mxCell>
        <mxCell id="oP36AOhe-tUjPATUfkVU-33" style="edgeStyle=orthogonalEdgeStyle;rounded=0;orthogonalLoop=1;jettySize=auto;html=1;entryX=0;entryY=0.5;entryDx=0;entryDy=0;" edge="1" parent="1" source="oP36AOhe-tUjPATUfkVU-10" target="oP36AOhe-tUjPATUfkVU-29">
          <mxGeometry relative="1" as="geometry">
            <mxPoint x="85" y="810" as="targetPoint" />
            <Array as="points">
              <mxPoint x="80" y="800" />
            </Array>
          </mxGeometry>
        </mxCell>
        <mxCell id="oP36AOhe-tUjPATUfkVU-10" value="output: la so nguyen to" style="shape=parallelogram;perimeter=parallelogramPerimeter;whiteSpace=wrap;html=1;fixedSize=1;" vertex="1" parent="1">
          <mxGeometry x="10" y="540" width="150" height="60" as="geometry" />
        </mxCell>
        <mxCell id="oP36AOhe-tUjPATUfkVU-12" value="false" style="text;html=1;align=center;verticalAlign=middle;resizable=0;points=[];autosize=1;strokeColor=none;fillColor=none;" vertex="1" parent="1">
          <mxGeometry x="205" y="518" width="50" height="30" as="geometry" />
        </mxCell>
        <mxCell id="oP36AOhe-tUjPATUfkVU-13" value="false" style="text;html=1;align=center;verticalAlign=middle;resizable=0;points=[];autosize=1;strokeColor=none;fillColor=none;" vertex="1" parent="1">
          <mxGeometry x="235" y="378" width="50" height="30" as="geometry" />
        </mxCell>
        <mxCell id="oP36AOhe-tUjPATUfkVU-23" style="edgeStyle=orthogonalEdgeStyle;rounded=0;orthogonalLoop=1;jettySize=auto;html=1;entryX=0.5;entryY=1;entryDx=0;entryDy=0;" edge="1" parent="1" source="oP36AOhe-tUjPATUfkVU-14" target="oP36AOhe-tUjPATUfkVU-16">
          <mxGeometry relative="1" as="geometry" />
        </mxCell>
        <mxCell id="oP36AOhe-tUjPATUfkVU-27" style="edgeStyle=orthogonalEdgeStyle;rounded=0;orthogonalLoop=1;jettySize=auto;html=1;entryX=0.5;entryY=0;entryDx=0;entryDy=0;" edge="1" parent="1" source="oP36AOhe-tUjPATUfkVU-14" target="oP36AOhe-tUjPATUfkVU-26">
          <mxGeometry relative="1" as="geometry" />
        </mxCell>
        <mxCell id="oP36AOhe-tUjPATUfkVU-14" value="n mod i = 0" style="rhombus;whiteSpace=wrap;html=1;" vertex="1" parent="1">
          <mxGeometry x="460" y="530" width="130" height="80" as="geometry" />
        </mxCell>
        <mxCell id="oP36AOhe-tUjPATUfkVU-21" style="edgeStyle=orthogonalEdgeStyle;rounded=0;orthogonalLoop=1;jettySize=auto;html=1;" edge="1" parent="1">
          <mxGeometry relative="1" as="geometry">
            <mxPoint x="300" y="500" as="targetPoint" />
            <mxPoint x="460" y="458" as="sourcePoint" />
            <Array as="points">
              <mxPoint x="460" y="459" />
              <mxPoint x="381" y="459" />
            </Array>
          </mxGeometry>
        </mxCell>
        <mxCell id="oP36AOhe-tUjPATUfkVU-30" style="edgeStyle=orthogonalEdgeStyle;rounded=0;orthogonalLoop=1;jettySize=auto;html=1;entryX=0.5;entryY=0;entryDx=0;entryDy=0;exitX=1;exitY=0.5;exitDx=0;exitDy=0;" edge="1" parent="1" source="oP36AOhe-tUjPATUfkVU-36" target="oP36AOhe-tUjPATUfkVU-29">
          <mxGeometry relative="1" as="geometry">
            <mxPoint x="550" y="400" as="sourcePoint" />
            <Array as="points">
              <mxPoint x="720" y="330" />
            </Array>
          </mxGeometry>
        </mxCell>
        <mxCell id="oP36AOhe-tUjPATUfkVU-16" value="i = i +1" style="rounded=0;whiteSpace=wrap;html=1;" vertex="1" parent="1">
          <mxGeometry x="460" y="430" width="130" height="60" as="geometry" />
        </mxCell>
        <mxCell id="oP36AOhe-tUjPATUfkVU-24" value="false" style="text;html=1;align=center;verticalAlign=middle;resizable=0;points=[];autosize=1;strokeColor=none;fillColor=none;" vertex="1" parent="1">
          <mxGeometry x="515" y="498" width="50" height="30" as="geometry" />
        </mxCell>
        <mxCell id="oP36AOhe-tUjPATUfkVU-25" value="true" style="text;html=1;align=center;verticalAlign=middle;resizable=0;points=[];autosize=1;strokeColor=none;fillColor=none;" vertex="1" parent="1">
          <mxGeometry x="350" y="528" width="40" height="30" as="geometry" />
        </mxCell>
        <mxCell id="oP36AOhe-tUjPATUfkVU-34" style="edgeStyle=orthogonalEdgeStyle;rounded=0;orthogonalLoop=1;jettySize=auto;html=1;" edge="1" parent="1" source="oP36AOhe-tUjPATUfkVU-26">
          <mxGeometry relative="1" as="geometry">
            <mxPoint x="720" y="710" as="targetPoint" />
          </mxGeometry>
        </mxCell>
        <mxCell id="oP36AOhe-tUjPATUfkVU-26" value="output: khong phai so nguyen to" style="shape=parallelogram;perimeter=parallelogramPerimeter;whiteSpace=wrap;html=1;fixedSize=1;" vertex="1" parent="1">
          <mxGeometry x="420" y="680" width="210" height="60" as="geometry" />
        </mxCell>
        <mxCell id="oP36AOhe-tUjPATUfkVU-28" value="true" style="text;html=1;align=center;verticalAlign=middle;resizable=0;points=[];autosize=1;strokeColor=none;fillColor=none;" vertex="1" parent="1">
          <mxGeometry x="530" y="608" width="40" height="30" as="geometry" />
        </mxCell>
        <mxCell id="oP36AOhe-tUjPATUfkVU-29" value="end" style="ellipse;whiteSpace=wrap;html=1;" vertex="1" parent="1">
          <mxGeometry x="660" y="760" width="120" height="80" as="geometry" />
        </mxCell>
        <mxCell id="oP36AOhe-tUjPATUfkVU-35" value="true" style="text;html=1;align=center;verticalAlign=middle;resizable=0;points=[];autosize=1;strokeColor=none;fillColor=none;" vertex="1" parent="1">
          <mxGeometry x="320" y="278" width="40" height="30" as="geometry" />
        </mxCell>
        <mxCell id="oP36AOhe-tUjPATUfkVU-36" value="output: khong phai so nguyen to" style="shape=parallelogram;perimeter=parallelogramPerimeter;whiteSpace=wrap;html=1;fixedSize=1;" vertex="1" parent="1">
          <mxGeometry x="410" y="300" width="210" height="60" as="geometry" />
        </mxCell>
      </root>
    </mxGraphModel>
  </diagram>
</mxfile>
